<svg width="25" height="22" viewBox="0 0 25 22" fill="none" xmlns="http://www.w3.org/2000/svg">
<path d="M23.4538 8.9198L20.8077 1.41211H4.19228L1.60767 8.73519V20.4275H23.4538V8.9198ZM4.8692 2.33519H20.1307L22.2846 8.42749H2.71536L4.8692 2.33519ZM22.4692 19.566H2.53074V9.35057H22.5307L22.4692 19.566Z" fill="#111111" stroke="#111111" stroke-width="0.692308" stroke-linejoin="round"/>
<path d="M16.1902 12.0578L16.0976 11.9587C15.8364 11.6794 15.3983 11.6647 15.119 11.9259C15.1158 11.929 15.1125 11.9321 15.1093 11.9352L11.15 15.7845L9.89079 14.5602C9.61665 14.2937 9.17835 14.2998 8.91182 14.574C8.90869 14.5772 8.90559 14.5804 8.90252 14.5837L8.80992 14.6828C8.55236 14.9582 8.56263 15.3891 8.83301 15.652L10.6674 17.4355C10.9361 17.6967 11.3639 17.6967 11.6326 17.4355L16.1671 13.027C16.4375 12.7641 16.4477 12.3332 16.1902 12.0578Z" fill="#111111"/>
<path d="M12.9614 2.48926H12.0383V8.02772H12.9614V2.48926Z" fill="#D8D8D8" stroke="black" stroke-width="0.923077"/>
</svg>
