<svg width="19" height="24" viewBox="0 0 19 24" fill="none" xmlns="http://www.w3.org/2000/svg">
<path d="M5.525 14.025L4.025 11.625H0.125V0.75H13.4L14 0.825C14.45 0.875 14.9 0.975 15.35 1.125C15.9 1.325 16.35 1.6 16.7 1.95C17.15 2.45 17.425 3.025 17.525 3.675L18.425 11.1C18.475 11.6 18.475 12 18.425 12.3C18.375 12.8 18.1875 13.2625 17.8625 13.6875C17.5375 14.1125 16.975 14.375 16.175 14.475C15.775 14.575 15.1 14.625 14.15 14.625H11.525L11.675 15.45C11.725 16.05 11.8 16.5 11.9 16.8L12.2 17.7C12.75 19.15 13.025 20.15 13.025 20.7C13.025 21.35 12.875 21.925 12.575 22.425C12.225 22.975 11.675 23.25 10.925 23.25C10.375 23.25 9.975 22.9 9.725 22.2C9.525 21.8 9.375 21.175 9.275 20.325C9.225 19.925 9.175 19.7 9.125 19.65L8.825 18.975C8.325 18.025 7.95 17.3875 7.7 17.0625C7.45 16.7375 6.825 15.875 5.825 14.475L5.525 14.025Z" fill="#111111"/>
</svg>
