<svg width="19" height="24" viewBox="0 0 19 24" fill="none" xmlns="http://www.w3.org/2000/svg">
<path d="M4.025 12.375C4.525 11.575 5.025 10.75 5.525 9.9L5.975 9.3C6.925 7.95 7.5125 7.125 7.7375 6.825C7.9625 6.525 8.325 5.875 8.825 4.875L9.125 4.275C9.175 4.225 9.225 4.025 9.275 3.675C9.375 2.825 9.525 2.2 9.725 1.8C9.975 1.1 10.375 0.75 10.925 0.75C11.675 0.75 12.225 1.025 12.575 1.575C12.875 2.075 13.025 2.65 13.025 3.3C13.025 3.85 12.75 4.85 12.2 6.3L11.9 7.125C11.8 7.475 11.725 7.95 11.675 8.55L11.525 9.3H14.15L14.975 9.375C15.575 9.425 16.1 9.525 16.55 9.675C17.2 9.825 17.65 10.05 17.9 10.35C18.2 10.75 18.375 11.175 18.425 11.625C18.475 11.925 18.475 12.325 18.425 12.825L17.525 20.325C17.375 21.575 16.775 22.425 15.725 22.875C15.125 23.125 14.35 23.25 13.4 23.25H0.125V12.375H4.025Z" fill="#111111"/>
</svg>
